
<svg width="455" height="268" viewBox="0 0 455 268" fill="none" xmlns="http://www.w3.org/2000/svg">
<path opacity="0.2" d="M479.076 120.512C498.9 79.3026 492.136 24.9194 471.629 -18.8352C462.933 -37.3908 448.928 -49.7253 432.945 -59.6493C424.955 -64.6104 416.466 -68.9716 407.896 -73.2058C405.783 -74.2496 403.666 -75.2856 401.55 -76.321C395.079 -79.4874 388.62 -82.6477 382.342 -86.0089C354.782 -100.763 327.412 -115.361 297.955 -111.819C264.642 -107.814 234.578 -92.562 212.28 -65.5327C209.05 -61.6176 205.655 -57.6205 202.192 -53.5424C189.929 -39.1049 176.805 -23.6534 167.105 -7.23937C154.657 13.822 147.805 36.5292 155.632 60.7981C163.497 85.1864 183.062 95.9004 205.679 103.466C212.716 105.82 220.069 107.875 227.462 109.942C231.94 111.194 236.434 112.45 240.881 113.779C252.687 117.307 264.201 121.359 274.381 127.238C282.942 132.181 291.027 138.41 298.929 144.962C302.032 147.535 305.11 150.16 308.177 152.776C312.913 156.816 317.624 160.834 322.364 164.605C337.991 177.038 354.07 186.899 372.892 186.292C415.885 184.905 459.008 162.228 479.076 120.512Z" stroke="url(#paint0_linear_13_12009)" strokeWidth="0.630656"/>
<path opacity="0.4" d="M303.925 -32.76C268.575 -14.544 248.203 25.4381 243.836 64.8947C241.983 81.6427 247.32 96.7527 255.37 111.181C259.394 118.394 264.1 125.444 268.93 132.447C270.121 134.173 271.319 135.896 272.516 137.618C276.178 142.885 279.833 148.141 283.248 153.446C298.245 176.735 313.163 199.823 338.33 211.685C366.79 225.099 397.988 229.359 428.574 221.916C433.003 220.838 437.603 219.785 442.297 218.71C458.914 214.905 476.701 210.833 492.214 204.454C512.115 196.272 528.363 184.26 533.624 164.062C538.912 143.762 528.353 127.048 513.906 111.011C509.408 106.018 504.517 101.074 499.598 96.1028C496.619 93.0919 493.63 90.0708 490.713 87.0227C482.967 78.9301 475.704 70.6277 470.369 61.7399C465.884 54.2662 462.387 46.1561 459.187 37.914C457.931 34.6794 456.72 31.4202 455.512 28.1715C453.648 23.1545 451.792 18.1627 449.797 13.3254C443.218 -2.62886 435.06 -17.0621 419.763 -25.7576C384.827 -45.6181 339.698 -51.1933 303.925 -32.76Z" stroke="url(#paint1_linear_13_12009)" strokeWidth="0.630656"/>
<path fill-rule="evenodd" clip-rule="evenodd" d="M606.548 -58.2648C620.072 2.26573 610.185 71.607 567.234 116.351C523.761 161.636 454.3 176.254 392.618 164.59C338.837 154.42 315.395 96.0842 273.54 60.8136C223.744 18.8512 133.055 6.66981 128.162 -58.2649C123.288 -122.953 199.473 -161.813 254.133 -196.75C295.539 -223.215 343.776 -232.712 392.618 -227.296C435.734 -222.516 469.422 -196 503.46 -169.106C544.616 -136.587 595.112 -109.456 606.548 -58.2648Z" fill="url(#paint2_linear_13_12009)"/>
<path opacity="0.3" fill-rule="evenodd" clip-rule="evenodd" d="M190.679 97.9466C171.224 59.2927 166.107 10.6917 187.552 -26.8953C209.256 -64.938 253.767 -86.6545 297.487 -89.2639C335.608 -91.539 361.402 -56.0589 395.726 -39.3199C436.563 -19.4051 500 -26.603 514.365 16.5002C528.677 59.4399 483.744 98.7039 452.708 131.649C429.198 156.606 398.177 171.243 364.207 175.895C334.22 180.001 306.912 167.795 279.302 155.393C245.918 140.397 207.133 130.637 190.679 97.9466Z" fill="url(#paint3_linear_13_12009)"/>
<path opacity="0.12" fill-rule="evenodd" clip-rule="evenodd" d="M353.329 51.7053C356.878 94.8335 343.406 141.809 309.437 168.619C275.056 195.753 225.651 199.204 184.139 185.236C147.944 173.058 137.329 130.496 111.78 102.112C81.3844 68.3433 19.8747 51.2402 22.7116 5.8947C25.5376 -39.2787 81.9108 -58.8396 123.033 -77.7506C154.183 -92.0761 188.429 -94.0199 221.666 -85.6001C251.006 -78.1675 271.749 -56.6162 292.697 -34.7701C318.027 -8.3548 350.327 15.2313 353.329 51.7053Z" fill="url(#paint4_linear_13_12009)"/>
<g style="mix-blend-mode:lighten">
<path fill-rule="evenodd" clip-rule="evenodd" d="M430.646 -138.456C468.68 -138.642 510.584 -152.721 539.945 -127.806C569.888 -102.397 569.621 -57.5287 572.812 -17.8182C576.144 23.6548 590.937 76.6574 558.351 101.281C525.49 126.112 481.854 90.6472 442.077 80.9723C418.996 75.3582 397.423 70.7219 377.599 57.3164C352.646 40.4427 326.049 24.3763 315.786 -4.42792C301.592 -44.2674 284.81 -94.92 312.038 -126.693C339.289 -158.491 389.345 -138.254 430.646 -138.456Z" fill="url(#paint5_linear_13_12009)"/>
</g>
<path fill-rule="evenodd" clip-rule="evenodd" d="M423.626 200.514C416.752 204.542 407.941 202.351 400.679 199.074C394.426 196.253 391.399 189.934 387.567 184.245C383.134 177.664 375.736 171.761 377.004 163.928C378.328 155.752 386.017 150.01 393.636 146.762C400.541 143.818 408.084 145.481 415.281 147.611C422.366 149.708 429.958 152.132 433.567 158.58C437.178 165.033 435.07 172.725 433.364 179.921C431.543 187.601 430.437 196.523 423.626 200.514Z" fill="url(#paint6_linear_13_12009)"/>
<path fill-rule="evenodd" clip-rule="evenodd" d="M333.93 136.975C332.433 136.512 331.581 134.943 331.092 133.454C330.672 132.172 331.187 130.894 331.503 129.583C331.87 128.066 331.744 126.208 333.049 125.353C334.411 124.459 336.265 124.812 337.748 125.487C339.092 126.098 339.852 127.413 340.498 128.74C341.135 130.046 341.791 131.47 341.334 132.85C340.877 134.23 339.482 134.946 338.211 135.653C336.855 136.409 335.413 137.433 333.93 136.975Z" fill="url(#paint7_linear_13_12009)"/>
<defs>
<linearGradient id="paint0_linear_13_12009" x1="122.502" y1="29.8226" x2="381.571" y2="169.605" gradientUnits="userSpaceOnUse">
<stop stop-color="#457EFF" stop-opacity="0.27"/>
<stop offset="1" stop-color="#4FC7C0"/>
</linearGradient>
<linearGradient id="paint1_linear_13_12009" x1="319.445" y1="194.23" x2="402.192" y2="-43.9907" gradientUnits="userSpaceOnUse">
<stop stop-color="#457EFF"/>
<stop offset="1" stop-color="#4FC7C0"/>
</linearGradient>
<linearGradient id="paint2_linear_13_12009" x1="582.542" y1="-95.7084" x2="100.269" y2="-171.605" gradientUnits="userSpaceOnUse">
<stop stop-color="#457EFF"/>
<stop offset="0.618804" stop-color="#4BACD7"/>
<stop offset="1" stop-color="#4FC5C3" stop-opacity="0"/>
</linearGradient>
<linearGradient id="paint3_linear_13_12009" x1="213.297" y1="119.195" x2="552.535" y2="88.4394" gradientUnits="userSpaceOnUse">
<stop stop-color="#4FC5C3" stop-opacity="0"/>
<stop offset="0.380208" stop-color="#4BACD7"/>
<stop offset="0.96875" stop-color="#457EFF"/>
</linearGradient>
<linearGradient id="paint4_linear_13_12009" x1="340.323" y1="23.5288" x2="14.2879" y2="-75.1064" gradientUnits="userSpaceOnUse">
<stop stop-color="#4FC5C3" stop-opacity="0"/>
<stop offset="0.380208" stop-color="#4BACD7"/>
<stop offset="0.96875" stop-color="#457EFF"/>
</linearGradient>
<linearGradient id="paint5_linear_13_12009" x1="275.26" y1="-140.431" x2="406.491" y2="179.517" gradientUnits="userSpaceOnUse">
<stop stop-color="#457EFF"/>
<stop offset="1" stop-color="#4FC7C0"/>
</linearGradient>
<linearGradient id="paint6_linear_13_12009" x1="323.454" y1="237.323" x2="433.75" y2="169.673" gradientUnits="userSpaceOnUse">
<stop stop-color="#457EFF"/>
<stop offset="1" stop-color="#4FC7C0"/>
</linearGradient>
<linearGradient id="paint7_linear_13_12009" x1="315.29" y1="127.327" x2="339.749" y2="134.349" gradientUnits="userSpaceOnUse">
<stop stop-color="#457EFF"/>
<stop offset="1" stop-color="#4FC7C0"/>
</linearGradient>
</defs>
</svg>
