
<svg viewBox="0 0 837 688" xmlns="http://www.w3.org/2000/svg"><g fill="none" opacity=".628"><path d="m495.429 144.174c67.121 30.672 102.913 122.262 92.091 206.429-10.822 84.166-69.027 161.06-132.985 171.341-64.41 10.012-134.64-46.933-196.97-73.52-61.878-26.315-115.923-22.618-152.294-51.384-36.372-28.765-55.454-89.918-30.984-132.66s92.175-66.653 174.835-93.83c82.274-27.101 179.57-57.123 246.307-26.376z" opacity=".676" stroke="#c6dbdc"/><path d="m592.087 224.368c68.635 27.117 109.171 116.709 102.77 201.326-6.403 84.618-60.504 164.451-123.836 178.067-63.798 13.368-136.912-39.822-200.548-63.11-63.17-23.042-116.948-16.522-154.775-43.344-37.827-26.823-60.083-86.893-37.883-130.857s88.56-71.386 169.683-102.851c80.743-31.37 176.335-66.443 244.59-39.23z" fill="#4ac7fd" opacity=".127"/><path d="m532.794 526.155c-51.801-16.121-111.263-31.425-131.486-72.077-20.224-40.652-.8-106.334 21.513-155.217 21.987-48.815 47.19-80.899 71.325-116.401 23.727-35.82 46.63-75.515 77.749-86.18 31.118-10.663 71.185 7.953 107.43 31.025 36.245 23.073 68.994 50.534 88.068 87.38 19.318 36.39 24.96 82.167 18.034 121.705-7.251 39.607-27.48 72.66-48.51 111.55-21.355 38.962-43.27 83.306-76.094 97.167-32.823 13.861-76.554-2.76-128.03-18.952z" fill="#54a7ff" opacity=".147"/><path d="m396.526 228.302c-1.698 42.517-1.221 90.67-27.914 114.244-26.692 23.573-80.395 22.191-121.958 15.21-41.444-6.748-70.867-19.328-102.662-30.406-31.954-10.704-66.676-19.998-81.071-41.408-14.396-21.41-8.427-55.543 1.696-87.686 10.122-32.142 24.278-62.527 48.32-84.457 23.648-22.021 57.182-35.588 88.541-38.367 31.479-2.547 60.624 6.068 94.357 14.105 33.852 8.27 71.895 15.872 89.06 37.925 17.163 22.052 13.448 58.557 11.631 100.84z" opacity=".561" stroke="#2d88df" stroke-opacity=".605"/></g></svg>