
<svg height="1016" viewBox="0 0 413.519435 1016" width="413.519435" xmlns="http://www.w3.org/2000/svg"><g fill="none" fill-rule="evenodd"><path d="m121.053291 52.3124862c-4.76838 25.2624088-31.9472798 167.5653188-37.5313059 196.5831118s18.3483449 55.027668 41.8451119 55.027668h36.246786c9.644258 0 24.002139 6.77487 18.597607 31.446884s-10.992966 50.052753-16.48651 74.025393 22.037427 33.638985 33.974351 14.949687c11.936924-18.689297 101.062207-161.333724 111.318379-180.517302 10.256171-19.183578-6.543113-48.848767-31.829391-48.848767-25.286279 0-35.749632 0-49.013399 0s-15.125236-9.469453-10.31135-28.97671c4.813887-19.507258 10.602261-45.02431 19.552469-82.4199124 8.950208-37.395602-27.116651-57.708309-46.120628-57.708309-19.003978 0-39.437325 0-45.070827 0-5.633503 0-20.402913 1.1758479-25.171293 26.4382566z" fill="#edf2ff"/><path d="m49.7129418 34.2709195c-6.1810722 32.746712-41.41205935 217.2086315-48.65042277 254.8233075s23.78427067 71.3303 54.24224717 71.3303h46.9853488c12.501489 0 31.113071 8.78201 24.10738 40.763415-7.005692 31.981406-14.249771 64.881505-21.370845 95.956338-7.1210741 31.074833 28.566289 43.604953 44.039676 19.378718 15.473386-24.226234 131.003144-209.130849 144.297835-233.997801 13.29469-24.866953-8.481592-63.320824-41.259245-63.320824s-46.340905 0-63.534228 0-19.606276-12.274895-13.366216-37.561421 13.743313-58.363323 25.345132-106.8378376c11.601818-48.4745149-35.150297-74.8051144-59.784439-74.8051144-24.634143 0-51.1211234 0-58.4236212 0s-26.4475299 1.52420743-32.628602 34.2709195z" fill="#457eff"/><path d="m231.883807 424.630885c-21.063305 34.118985-140.1766994 226.132792-164.5266843 265.26404s-4.0403418 90.380568 30.1729501 103.513821c34.2132922 13.133252 38.7355452 14.869182 52.7784062 20.259731 14.04286 5.390549 31.16242 23.280512 9.502818 56.184262s-43.983116 66.736673-65.3814195 98.572323c-21.3983032 31.835648 13.2862385 61.298798 41.1135875 40.757598 27.827348-20.5412 237.330836-178.428054 262.987139-200.628405s17.776138-74.785162-19.042835-88.918642c-36.818973-14.133479-52.054505-19.981852-71.367679-27.395485s-16.730788-22.242408 1.182002-47.955968c17.912789-25.71356 40.603623-59.633213 74.537737-109.081774 33.934114-49.448562-7.228744-99.184755-34.900153-109.806813-27.671408-10.622059-57.4241-22.043047-65.626959-25.19183-8.202859-3.148782-30.365604-9.691843-51.42891 24.427142z" opacity=".236654" stroke="#457eff"/></g></svg>