<svg xmlns="http://www.w3.org/2000/svg" version="1.1" xmlns:xlink="http://www.w3.org/1999/xlink" xmlns:svgjs="http://svgjs.dev/svgjs" width="128" height="128" viewBox="0 0 128 128"><g transform="matrix(0.4881516587677725,0,0,0.4881516587677725,37.03470316675387,17.518440212362705)"><svg viewBox="0 0 58 96" data-background-color="#ffffff" preserveAspectRatio="xMidYMid meet" height="211" width="128" xmlns="http://www.w3.org/2000/svg" xmlns:xlink="http://www.w3.org/1999/xlink"><g id="tight-bounds" transform="matrix(1,0,0,1,0.24329166803146052,0.36981041955453975)"><svg viewBox="0 0 57.6815129409339 95.481" height="95.481" width="57.6815129409339"><g><svg viewBox="0 0 57.6815129409339 95.481" height="95.481" width="57.6815129409339"><g><svg viewBox="0 0 57.6815129409339 95.481" height="95.481" width="57.6815129409339"><g id="textblocktransform"><svg viewBox="0 0 57.6815129409339 95.481" height="95.481" width="57.6815129409339" id="textblock"><g><svg viewBox="0 0 57.6815129409339 95.481" height="95.481" width="57.6815129409339"><g><svg viewBox="0 0 57.6815129409339 95.481" height="95.481" width="57.6815129409339"><g><svg xmlns="http://www.w3.org/2000/svg" xmlns:xlink="http://www.w3.org/1999/xlink" version="1.1" x="0" y="0" viewBox="20.874486835009044 1.829499061719099 58.09436196155989 96.1643946498379" enable-background="new 0 0 100 100" xml:space="preserve" height="95.481" width="57.6815129409339" class="icon-icon-0" data-fill-palette-color="accent" id="icon-0"><g fill="#eab308" data-fill-palette-color="accent"><path d="M28.157 21.837A1.84 1.84 0 0 0 29.46 18.692L24.019 13.251A1.84 1.84 0 1 0 21.414 15.856L26.855 21.297C27.214 21.657 27.686 21.837 28.157 21.837" fill="#eab308" data-fill-palette-color="accent"></path><path d="M78.428 13.25A1.84 1.84 0 0 0 75.823 13.25L70.382 18.691A1.84 1.84 0 0 0 71.685 21.836C72.157 21.836 72.628 21.656 72.988 21.296L78.429 15.855A1.84 1.84 0 0 0 78.428 13.25" fill="#eab308" data-fill-palette-color="accent"></path><path d="M40.01 12.415A1.85 1.85 0 0 0 41.759 13.677 1.843 1.843 0 0 0 43.507 11.251L40.788 3.09A1.841 1.841 0 1 0 37.292 4.255z" fill="#eab308" data-fill-palette-color="accent"></path><path d="M57.5 13.581A1.84 1.84 0 0 0 59.83 12.416L62.552 4.255A1.843 1.843 0 0 0 59.056 3.089L56.335 11.25A1.84 1.84 0 0 0 57.5 13.581" fill="#eab308" data-fill-palette-color="accent"></path><path d="M57.5 84.438L41.176 89.876A1.842 1.842 0 1 0 42.341 93.372L58.666 87.933A1.843 1.843 0 0 0 57.5 84.438" fill="#eab308" data-fill-palette-color="accent"></path><path d="M54.448 90.895L43.882 94.416A1.843 1.843 0 0 0 45.047 97.912L55.614 94.39A1.842 1.842 0 0 0 54.448 90.895" fill="#eab308" data-fill-palette-color="accent"></path><path d="M49.921 19.054C37.566 19.054 26.315 30.305 26.315 42.659 26.315 51.347 29.915 57.108 33.396 62.68 36.749 68.044 39.917 73.112 39.917 80.746 39.917 81.763 40.741 82.588 41.76 82.588H46.728L41.177 84.439A1.843 1.843 0 0 0 42.342 87.934L58.667 82.493C58.688 82.486 58.706 82.473 58.728 82.467 58.79 82.443 58.851 82.414 58.91 82.386A1.6 1.6 0 0 0 59.205 82.2C59.253 82.162 59.3 82.126 59.345 82.085 59.387 82.045 59.425 82.001 59.463 81.958 59.501 81.913 59.54 81.869 59.574 81.821 59.61 81.771 59.641 81.718 59.672 81.665 59.7 81.617 59.729 81.569 59.752 81.519 59.778 81.463 59.799 81.404 59.819 81.343 59.837 81.29 59.856 81.236 59.87 81.18 59.884 81.122 59.892 81.065 59.9 81.005 59.91 80.943 59.918 80.88 59.92 80.816 59.921 80.792 59.928 80.77 59.928 80.747 59.928 73.112 63.095 68.045 66.449 62.681 69.929 57.11 73.529 51.349 73.529 42.66 73.526 30.305 62.275 19.054 49.921 19.054M61.825 53.32C56.65 61.081 56.591 71.576 56.591 71.681A1.229 1.229 0 1 1 54.133 71.681C54.133 71.256 54.188 61.897 58.621 53.867H55.361A1.2 1.2 0 0 1 54.822 53.742L53.739 55.909A1.24 1.24 0 0 1 52.358 56.556 1.23 1.23 0 0 1 51.412 55.359V55.122L51.018 55.909A1.23 1.23 0 0 1 48.691 55.359V55.122L48.297 55.909A1.23 1.23 0 0 1 45.97 55.359V55.124L45.578 55.909A1.23 1.23 0 0 1 44.197 56.554 1.226 1.226 0 0 1 43.251 55.36V53.868H41.22C45.653 61.898 45.708 71.258 45.708 71.682 45.708 72.361 45.158 72.911 44.48 72.911H44.479A1.23 1.23 0 0 1 43.25 71.684C43.25 71.579 43.178 61.065 38.015 53.321A1.229 1.229 0 0 1 39.037 51.411H44.478C44.67 51.411 44.854 51.457 45.015 51.536L46.097 49.371A1.227 1.227 0 0 1 48.424 49.92V50.157L48.818 49.37A1.228 1.228 0 0 1 51.145 49.92V50.157L51.539 49.37A1.229 1.229 0 0 1 53.867 49.92V50.157L54.26 49.37A1.228 1.228 0 0 1 56.588 49.92V51.411H60.801C61.254 51.411 61.67 51.661 61.884 52.061 62.101 52.459 62.076 52.943 61.825 53.32M49.923 23.617S66.245 23.617 68.963 39.938C68.925 39.945 66.245 29.058 49.923 23.617" fill="#eab308" data-fill-palette-color="accent"></path></g></svg></g></svg></g></svg></g></svg></g></svg></g></svg></g><defs></defs></svg><rect width="57.6815129409339" height="95.481" fill="none" stroke="none" visibility="hidden"></rect></g></svg></g></svg>