<svg xmlns="http://www.w3.org/2000/svg" version="1.1" xmlns:xlink="http://www.w3.org/1999/xlink" xmlns:svgjs="http://svgjs.dev/svgjs" width="1500" height="1500" viewBox="0 0 1500 1500"><rect width="1500" height="1500" fill="#000000"></rect><g transform="matrix(0.6666666666666666,0,0,0.6666666666666666,249.39393939393938,574.1564440298594)"><svg viewBox="0 0 396 139" data-background-color="#ffffff" preserveAspectRatio="xMidYMid meet" height="526" width="1500" xmlns="http://www.w3.org/2000/svg" xmlns:xlink="http://www.w3.org/1999/xlink"><g id="tight-bounds" transform="matrix(1,0,0,1,0.2400000000000091,0.20224604519836475)"><svg viewBox="0 0 395.52 138.5954466244666" height="138.5954466244666" width="395.52"><g><svg viewBox="0 0 655.1005186922723 229.55589849331315" height="138.5954466244666" width="395.52"><g transform="matrix(1,0,0,1,259.58051869227234,66.90777536122388)"><svg viewBox="0 0 395.52 95.74034777086538" height="95.74034777086538" width="395.52"><g id="textblocktransform"><svg viewBox="0 0 395.52 95.74034777086538" height="95.74034777086538" width="395.52" id="textblock"><g><svg viewBox="0 0 395.52 63.59100501312961" height="63.59100501312961" width="395.52"><g transform="matrix(1,0,0,1,0,0)"><svg width="395.52" viewBox="1.88 -33.13 209.43 33.68000000000001" height="63.59100501312961" data-palette-color="#555555"><g class="wordmark-text-0" data-fill-palette-color="primary" id="text-0"><path d="M21.8 0L17.78 0 17.95-5.93 17.8-6.55 17.8-14.33 17.82-15.75Q17.82-18.73 16.31-20.15 14.8-21.58 11.53-21.58L11.53-21.58Q8.9-21.58 6.71-20.83 4.53-20.08 2.83-19.07L2.83-19.07 3.2-22.53Q4.15-23.1 5.46-23.66 6.78-24.23 8.46-24.6 10.15-24.98 12.18-24.98L12.18-24.98Q14.8-24.98 16.64-24.34 18.48-23.7 19.61-22.5 20.75-21.3 21.28-19.6 21.8-17.9 21.8-15.8L21.8-15.8 21.8 0ZM9.38 0.53L9.38 0.53Q5.75 0.53 3.81-1.24 1.88-3 1.88-6.28L1.88-6.28 1.88-7Q1.88-10.38 3.96-12.04 6.05-13.7 10.6-14.35L10.6-14.35 18.32-15.45 18.55-12.5 11.1-11.43Q8.3-11.03 7.1-10.06 5.9-9.1 5.9-7.23L5.9-7.23 5.9-6.83Q5.9-4.9 7.09-3.88 8.28-2.85 10.65-2.85L10.65-2.85Q12.75-2.85 14.25-3.58 15.75-4.3 16.68-5.53 17.6-6.75 17.93-8.25L17.93-8.25 18.55-5.5 17.78-5.5Q17.43-3.9 16.46-2.53 15.5-1.15 13.78-0.31 12.05 0.53 9.38 0.53ZM36.87 0.5L36.87 0.5Q34.05 0.5 32.32-0.35 30.6-1.2 29.82-2.93 29.05-4.65 29.05-7.23L29.05-7.23 29.05-22.63 33.05-22.63 33.05-7.7Q33.05-5.3 34.15-4.16 35.25-3.03 37.85-3.03L37.85-3.03Q39.32-3.03 40.69-3.35 42.05-3.68 43.25-4.28L43.25-4.28 42.87-0.8Q41.7-0.2 40.12 0.15 38.55 0.5 36.87 0.5ZM42.62-20.8L25.05-20.8 25.05-24.05 43-24.05 42.62-20.8ZM32.95-23.65L29.07-23.65 29.05-30.5 33.12-31.03 32.95-23.65ZM58.02 0.55L58.02 0.55Q52.45 0.55 49.62-2.18 46.8-4.9 46.8-9.98L46.8-9.98 46.8-14.33Q46.8-19.48 49.42-22.26 52.05-25.05 57.1-25.05L57.1-25.05Q60.5-25.05 62.77-23.79 65.05-22.53 66.2-20.2 67.34-17.88 67.34-14.65L67.34-14.65 67.34-13.75Q67.34-12.95 67.28-12.15 67.22-11.35 67.12-10.58L67.12-10.58 63.4-10.58Q63.45-11.78 63.46-12.85 63.47-13.93 63.47-14.83L63.47-14.83Q63.47-17.05 62.76-18.59 62.05-20.13 60.63-20.94 59.22-21.75 57.1-21.75L57.1-21.75Q53.95-21.75 52.37-19.93 50.8-18.1 50.8-14.7L50.8-14.7 50.8-12.38 50.82-11.88 50.82-9.55Q50.82-8.03 51.27-6.8 51.72-5.58 52.68-4.69 53.65-3.8 55.13-3.34 56.62-2.88 58.67-2.88L58.67-2.88Q61.05-2.88 63.1-3.5 65.15-4.13 66.95-5.2L66.95-5.2 66.57-1.7Q64.95-0.68 62.8-0.06 60.65 0.55 58.02 0.55ZM66.27-10.58L48.92-10.58 48.92-13.63 66.27-13.63 66.27-10.58ZM82.14 0.55L82.14 0.55Q76.89 0.55 74.33-2.29 71.77-5.13 71.77-10.33L71.77-10.33 71.77-14.13Q71.77-19.35 74.34-22.16 76.92-24.98 82.14-24.98L82.14-24.98Q83.69-24.98 84.97-24.69 86.24-24.4 87.26-23.94 88.27-23.48 88.97-22.98L88.97-22.98 89.32-19.45Q88.14-20.35 86.53-20.98 84.92-21.6 82.74-21.6L82.74-21.6Q79.24-21.6 77.53-19.66 75.82-17.73 75.82-14.03L75.82-14.03 75.82-10.43Q75.82-6.8 77.53-4.85 79.24-2.9 82.74-2.9L82.74-2.9Q84.99-2.9 86.63-3.53 88.27-4.15 89.54-5.05L89.54-5.05 89.17-1.48Q88.07-0.73 86.29-0.09 84.52 0.55 82.14 0.55ZM114.82 0L110.77 0 110.77-15.18Q110.77-17.15 110.23-18.57 109.69-20 108.48-20.79 107.27-21.58 105.17-21.58L105.17-21.58Q103.24-21.58 101.84-20.85 100.44-20.13 99.58-18.89 98.72-17.65 98.37-16.07L98.37-16.07 97.47-18.95 98.52-18.95Q98.89-20.6 99.89-21.96 100.89-23.33 102.58-24.14 104.27-24.95 106.69-24.95L106.69-24.95Q109.59-24.95 111.38-23.85 113.17-22.75 113.99-20.69 114.82-18.63 114.82-15.63L114.82-15.63 114.82 0ZM98.49 0L94.44 0 94.44-33.13 98.47-33.13 98.47-25.18 98.34-18.18 98.49-17.85 98.49 0ZM128.71 0.55L128.71 0.55Q125.76 0.55 123.56-0.09 121.36-0.73 119.91-1.48L119.91-1.48 119.54-5.23Q121.36-4.28 123.55-3.58 125.74-2.88 128.51-2.88L128.51-2.88Q131.34-2.88 132.76-3.78 134.19-4.67 134.19-6.45L134.19-6.45 134.19-6.73Q134.19-7.88 133.65-8.63 133.11-9.38 131.71-9.95 130.31-10.53 127.74-11.1L127.74-11.1Q124.66-11.78 122.89-12.69 121.11-13.6 120.35-14.95 119.59-16.3 119.59-18.25L119.59-18.25 119.59-18.48Q119.59-21.68 121.81-23.33 124.04-24.98 128.51-24.98L128.51-24.98Q131.39-24.98 133.5-24.33 135.61-23.68 136.96-22.88L136.96-22.88 137.34-19.45Q135.71-20.4 133.61-21.03 131.51-21.65 128.89-21.65L128.89-21.65Q126.99-21.65 125.81-21.26 124.64-20.88 124.11-20.16 123.59-19.45 123.59-18.45L123.59-18.45 123.59-18.25Q123.59-17.15 124.11-16.39 124.64-15.63 126-15.06 127.36-14.5 129.79-13.98L129.79-13.98Q132.91-13.35 134.75-12.48 136.59-11.6 137.39-10.26 138.19-8.93 138.19-6.83L138.19-6.83 138.19-6.4Q138.19-2.95 135.79-1.2 133.39 0.55 128.71 0.55ZM153.39 0.55L153.39 0.55Q147.81 0.55 144.99-2.18 142.16-4.9 142.16-9.98L142.16-9.98 142.16-14.33Q142.16-19.48 144.79-22.26 147.41-25.05 152.46-25.05L152.46-25.05Q155.86-25.05 158.14-23.79 160.41-22.53 161.56-20.2 162.71-17.88 162.71-14.65L162.71-14.65 162.71-13.75Q162.71-12.95 162.65-12.15 162.59-11.35 162.49-10.58L162.49-10.58 158.76-10.58Q158.81-11.78 158.82-12.85 158.84-13.93 158.84-14.83L158.84-14.83Q158.84-17.05 158.12-18.59 157.41-20.13 156-20.94 154.59-21.75 152.46-21.75L152.46-21.75Q149.31-21.75 147.74-19.93 146.16-18.1 146.16-14.7L146.16-14.7 146.16-12.38 146.19-11.88 146.19-9.55Q146.19-8.03 146.64-6.8 147.09-5.58 148.05-4.69 149.01-3.8 150.5-3.34 151.99-2.88 154.04-2.88L154.04-2.88Q156.41-2.88 158.46-3.5 160.51-4.13 162.31-5.2L162.31-5.2 161.94-1.7Q160.31-0.68 158.16-0.06 156.01 0.55 153.39 0.55ZM161.64-10.58L144.29-10.58 144.29-13.63 161.64-13.63 161.64-10.58ZM176.86-2.78L177.46-2.78 184.21-24.4 188.41-24.4 180.48 0 173.83 0 165.91-24.4 170.11-24.4 176.86-2.78ZM211.31 0L207.28 0 207.46-5.93 207.31-6.55 207.31-14.33 207.33-15.75Q207.33-18.73 205.82-20.15 204.31-21.58 201.03-21.58L201.03-21.58Q198.41-21.58 196.22-20.83 194.03-20.08 192.33-19.07L192.33-19.07 192.71-22.53Q193.66-23.1 194.97-23.66 196.28-24.23 197.97-24.6 199.66-24.98 201.68-24.98L201.68-24.98Q204.31-24.98 206.14-24.34 207.98-23.7 209.12-22.5 210.26-21.3 210.78-19.6 211.31-17.9 211.31-15.8L211.31-15.8 211.31 0ZM198.88 0.53L198.88 0.53Q195.26 0.53 193.32-1.24 191.38-3 191.38-6.28L191.38-6.28 191.38-7Q191.38-10.38 193.47-12.04 195.56-13.7 200.11-14.35L200.11-14.35 207.83-15.45 208.06-12.5 200.61-11.43Q197.81-11.03 196.61-10.06 195.41-9.1 195.41-7.23L195.41-7.23 195.41-6.83Q195.41-4.9 196.59-3.88 197.78-2.85 200.16-2.85L200.16-2.85Q202.26-2.85 203.76-3.58 205.26-4.3 206.18-5.53 207.11-6.75 207.43-8.25L207.43-8.25 208.06-5.5 207.28-5.5Q206.93-3.9 205.97-2.53 205.01-1.15 203.28-0.31 201.56 0.53 198.88 0.53Z" fill="#ffffff" data-fill-palette-color="primary"></path></g></svg></g></svg></g><g transform="matrix(1,0,0,1,0,78.6033151126092)"><svg viewBox="0 0 232.209792 17.13703265825619" height="17.13703265825619" width="232.209792"><g transform="matrix(1,0,0,1,0,0)"><svg width="232.209792" viewBox="3.78 -33.48 580.5500000000001 42.86" height="17.13703265825619" data-palette-color="#797979"><path d="M14.48 0L6.58 0 6.58-3.5 14.33-3.5Q18.57-3.5 20.71-5.81 22.85-8.13 22.85-12.43L22.85-12.43 22.85-19.55Q22.85-23.88 20.71-26.18 18.57-28.48 14.33-28.48L14.33-28.48 6.55-28.48 6.55-31.95 14.48-31.95Q20.68-31.95 23.85-28.76 27.03-25.58 27.03-19.58L27.03-19.58 27.03-12.4Q27.03-6.43 23.85-3.21 20.68 0 14.48 0L14.48 0ZM7.88 0L3.78 0 3.78-31.95 7.88-31.95 7.88 0ZM37 0L32.95 0 32.95-24.4 37-24.4 37 0ZM34.97-28.4L34.97-28.4Q33.72-28.4 33.11-29.06 32.5-29.73 32.5-30.88L32.5-30.88 32.5-31Q32.5-32.18 33.11-32.83 33.72-33.48 34.97-33.48L34.97-33.48Q36.22-33.48 36.85-32.83 37.47-32.18 37.47-31L37.47-31 37.47-30.88Q37.47-29.7 36.85-29.05 36.22-28.4 34.97-28.4ZM53.2-7.3L53.2-7.3Q48.22-7.3 45.56-9.47 42.9-11.65 42.9-15.7L42.9-15.7 42.9-16.32Q42.9-18.85 43.93-20.73 44.97-22.6 47.25-23.66 49.52-24.73 53.2-24.83L53.2-24.83 65.65-25.23 65.65-22.03 58.3-22.28 58.27-22.1Q60-21.75 61.1-20.9 62.2-20.05 62.73-18.78 63.27-17.5 63.27-15.8L63.27-15.8 63.27-15.25Q63.27-11.38 60.72-9.34 58.17-7.3 53.2-7.3ZM53.02 6.15L53.02 6.15 53.6 6.15Q55.85 6.15 57.46 5.81 59.07 5.48 59.95 4.75 60.82 4.03 60.82 2.83L60.82 2.83 60.82 2.73Q60.82 1.33 59.81 0.59 58.8-0.15 56.35-0.38L56.35-0.38 49.45-1 50.6-1.05Q49.2-0.85 48.13-0.4 47.07 0.05 46.47 0.79 45.87 1.53 45.87 2.63L45.87 2.63 45.87 2.68Q45.87 3.95 46.75 4.73 47.62 5.5 49.22 5.83 50.82 6.15 53.02 6.15ZM53.52 9.38L52.8 9.38Q49.5 9.38 47.11 8.81 44.72 8.25 43.41 6.99 42.1 5.73 42.1 3.6L42.1 3.6 42.1 3.5Q42.1 2 42.81 1 43.52 0 44.73-0.58 45.95-1.15 47.45-1.35L47.45-1.35 47.42-1.5Q45.37-1.85 44.4-2.71 43.42-3.58 43.42-4.95L43.42-4.95 43.42-4.98Q43.42-5.93 43.86-6.6 44.3-7.28 45.18-7.68 46.07-8.08 47.45-8.18L47.45-8.18 47.45-8.68 52.1-7.5 50.2-7.55Q48.5-7.53 47.85-7.14 47.2-6.75 47.2-5.98L47.2-5.98 47.2-5.95Q47.2-5.13 48.12-4.7 49.05-4.28 51.27-4.03L51.27-4.03 57.2-3.43Q61.07-3.03 62.85-1.56 64.62-0.1 64.62 2.75L64.62 2.75 64.62 2.88Q64.62 5.15 63.27 6.6 61.92 8.05 59.45 8.71 56.97 9.38 53.52 9.38L53.52 9.38ZM53.15-10.3L53.15-10.3Q55.25-10.3 56.63-10.91 58.02-11.53 58.73-12.76 59.45-14 59.45-15.8L59.45-15.8 59.45-16.4Q59.45-18.15 58.76-19.38 58.07-20.6 56.7-21.24 55.32-21.88 53.25-21.88L53.25-21.88 53.1-21.88Q50.85-21.88 49.43-21.19 48.02-20.5 47.38-19.26 46.75-18.03 46.75-16.38L46.75-16.38 46.75-15.8Q46.75-14 47.46-12.78 48.17-11.55 49.6-10.93 51.02-10.3 53.15-10.3ZM73.44 0L69.39 0 69.39-24.4 73.44-24.4 73.44 0ZM71.42-28.4L71.42-28.4Q70.17-28.4 69.56-29.06 68.94-29.73 68.94-30.88L68.94-30.88 68.94-31Q68.94-32.18 69.56-32.83 70.17-33.48 71.42-33.48L71.42-33.48Q72.67-33.48 73.29-32.83 73.92-32.18 73.92-31L73.92-31 73.92-30.88Q73.92-29.7 73.29-29.05 72.67-28.4 71.42-28.4ZM89.02 0.5L89.02 0.5Q86.19 0.5 84.47-0.35 82.74-1.2 81.97-2.93 81.19-4.65 81.19-7.23L81.19-7.23 81.19-22.63 85.19-22.63 85.19-7.7Q85.19-5.3 86.29-4.16 87.39-3.03 89.99-3.03L89.99-3.03Q91.47-3.03 92.83-3.35 94.19-3.68 95.39-4.28L95.39-4.28 95.02-0.8Q93.84-0.2 92.27 0.15 90.69 0.5 89.02 0.5ZM94.77-20.8L77.19-20.8 77.19-24.05 95.14-24.05 94.77-20.8ZM85.09-23.65L81.22-23.65 81.19-30.5 85.27-31.03 85.09-23.65ZM118.41 0L114.39 0 114.56-5.93 114.41-6.55 114.41-14.33 114.44-15.75Q114.44-18.73 112.93-20.15 111.41-21.58 108.14-21.58L108.14-21.58Q105.51-21.58 103.33-20.83 101.14-20.08 99.44-19.07L99.44-19.07 99.81-22.53Q100.76-23.1 102.08-23.66 103.39-24.23 105.08-24.6 106.76-24.98 108.79-24.98L108.79-24.98Q111.41-24.98 113.25-24.34 115.09-23.7 116.23-22.5 117.36-21.3 117.89-19.6 118.41-17.9 118.41-15.8L118.41-15.8 118.41 0ZM105.99 0.53L105.99 0.53Q102.36 0.53 100.43-1.24 98.49-3 98.49-6.28L98.49-6.28 98.49-7Q98.49-10.38 100.58-12.04 102.66-13.7 107.21-14.35L107.21-14.35 114.94-15.45 115.16-12.5 107.71-11.43Q104.91-11.03 103.71-10.06 102.51-9.1 102.51-7.23L102.51-7.23 102.51-6.83Q102.51-4.9 103.7-3.88 104.89-2.85 107.26-2.85L107.26-2.85Q109.36-2.85 110.86-3.58 112.36-4.3 113.29-5.53 114.21-6.75 114.54-8.25L114.54-8.25 115.16-5.5 114.39-5.5Q114.04-3.9 113.08-2.53 112.11-1.15 110.39-0.31 108.66 0.53 105.99 0.53ZM128.76 0L124.74 0 124.74-33.13 128.76-33.13 128.76 0ZM158.21 0.58L158.21 0.58Q152.28 0.58 149.32-2.75 146.36-6.08 146.36-12.2L146.36-12.2 146.36-19.78Q146.36-25.9 149.31-29.21 152.26-32.52 158.16-32.52L158.16-32.52Q160.06-32.52 161.62-32.18 163.18-31.83 164.41-31.28 165.63-30.73 166.48-30.13L166.48-30.13 166.83-26.28Q165.36-27.33 163.37-28.11 161.38-28.9 158.71-28.9L158.71-28.9Q154.68-28.9 152.63-26.51 150.58-24.13 150.58-19.73L150.58-19.73 150.58-12.35Q150.58-7.98 152.66-5.56 154.73-3.15 158.86-3.15L158.86-3.15Q161.51-3.15 163.54-3.93 165.58-4.7 167.08-5.83L167.08-5.83 166.73-1.88Q165.88-1.28 164.63-0.7 163.38-0.13 161.77 0.23 160.16 0.58 158.21 0.58ZM176.28-14.93L176.28-14.93 175.35-18.05 176.35-18.1Q177.15-21.2 179.1-22.99 181.05-24.78 184.28-24.78L184.28-24.78Q185.08-24.78 185.72-24.65 186.35-24.53 186.85-24.35L186.85-24.35 187.1-20.43Q186.48-20.63 185.72-20.75 184.95-20.88 184.03-20.88L184.03-20.88Q181.28-20.88 179.24-19.35 177.2-17.82 176.28-14.93ZM176.48 0L172.43 0 172.43-24.4 176.38-24.4 176.18-17.2 176.48-16.9 176.48 0ZM201.33 0.55L201.33 0.55Q195.75 0.55 192.93-2.18 190.1-4.9 190.1-9.98L190.1-9.98 190.1-14.33Q190.1-19.48 192.73-22.26 195.35-25.05 200.4-25.05L200.4-25.05Q203.8-25.05 206.08-23.79 208.35-22.53 209.5-20.2 210.65-17.88 210.65-14.65L210.65-14.65 210.65-13.75Q210.65-12.95 210.59-12.15 210.53-11.35 210.43-10.58L210.43-10.58 206.7-10.58Q206.75-11.78 206.76-12.85 206.78-13.93 206.78-14.83L206.78-14.83Q206.78-17.05 206.06-18.59 205.35-20.13 203.94-20.94 202.53-21.75 200.4-21.75L200.4-21.75Q197.25-21.75 195.68-19.93 194.1-18.1 194.1-14.7L194.1-14.7 194.1-12.38 194.13-11.88 194.13-9.55Q194.13-8.03 194.58-6.8 195.03-5.58 195.99-4.69 196.95-3.8 198.44-3.34 199.93-2.88 201.98-2.88L201.98-2.88Q204.35-2.88 206.4-3.5 208.45-4.13 210.25-5.2L210.25-5.2 209.88-1.7Q208.25-0.68 206.1-0.06 203.95 0.55 201.33 0.55ZM209.58-10.58L192.23-10.58 192.23-13.63 209.58-13.63 209.58-10.58ZM234.55 0L230.52 0 230.7-5.93 230.55-6.55 230.55-14.33 230.57-15.75Q230.57-18.73 229.06-20.15 227.55-21.58 224.27-21.58L224.27-21.58Q221.65-21.58 219.46-20.83 217.27-20.08 215.57-19.07L215.57-19.07 215.95-22.53Q216.9-23.1 218.21-23.66 219.52-24.23 221.21-24.6 222.9-24.98 224.92-24.98L224.92-24.98Q227.55-24.98 229.39-24.34 231.22-23.7 232.36-22.5 233.5-21.3 234.02-19.6 234.55-17.9 234.55-15.8L234.55-15.8 234.55 0ZM222.12 0.53L222.12 0.53Q218.5 0.53 216.56-1.24 214.62-3 214.62-6.28L214.62-6.28 214.62-7Q214.62-10.38 216.71-12.04 218.8-13.7 223.35-14.35L223.35-14.35 231.07-15.45 231.3-12.5 223.85-11.43Q221.05-11.03 219.85-10.06 218.65-9.1 218.65-7.23L218.65-7.23 218.65-6.83Q218.65-4.9 219.84-3.88 221.02-2.85 223.4-2.85L223.4-2.85Q225.5-2.85 227-3.58 228.5-4.3 229.42-5.53 230.35-6.75 230.67-8.25L230.67-8.25 231.3-5.5 230.52-5.5Q230.17-3.9 229.21-2.53 228.25-1.15 226.52-0.31 224.8 0.53 222.12 0.53ZM249.62 0.5L249.62 0.5Q246.8 0.5 245.07-0.35 243.35-1.2 242.57-2.93 241.8-4.65 241.8-7.23L241.8-7.23 241.8-22.63 245.8-22.63 245.8-7.7Q245.8-5.3 246.9-4.16 248-3.03 250.6-3.03L250.6-3.03Q252.07-3.03 253.43-3.35 254.8-3.68 256-4.28L256-4.28 255.62-0.8Q254.45-0.2 252.87 0.15 251.3 0.5 249.62 0.5ZM255.37-20.8L237.8-20.8 237.8-24.05 255.75-24.05 255.37-20.8ZM245.7-23.65L241.82-23.65 241.8-30.5 245.87-31.03 245.7-23.65ZM264.64 0L260.59 0 260.59-24.4 264.64-24.4 264.64 0ZM262.62-28.4L262.62-28.4Q261.37-28.4 260.76-29.06 260.14-29.73 260.14-30.88L260.14-30.88 260.14-31Q260.14-32.18 260.76-32.83 261.37-33.48 262.62-33.48L262.62-33.48Q263.87-33.48 264.49-32.83 265.12-32.18 265.12-31L265.12-31 265.12-30.88Q265.12-29.7 264.49-29.05 263.87-28.4 262.62-28.4ZM281.04 0.63L281.04 0.63Q275.79 0.63 273.08-2.21 270.37-5.05 270.37-10.38L270.37-10.38 270.37-14.1Q270.37-19.4 273.09-22.23 275.81-25.05 281.04-25.05L281.04-25.05Q286.29-25.05 289-22.23 291.72-19.4 291.72-14.1L291.72-14.1 291.72-10.38Q291.72-5.05 289-2.21 286.29 0.63 281.04 0.63ZM281.04-2.68L281.04-2.68Q284.29-2.68 285.98-4.6 287.67-6.53 287.67-10.15L287.67-10.15 287.67-14.33Q287.67-17.93 285.98-19.84 284.29-21.75 281.04-21.75L281.04-21.75Q277.81-21.75 276.12-19.84 274.42-17.93 274.42-14.33L274.42-14.33 274.42-10.15Q274.42-6.53 276.12-4.6 277.81-2.68 281.04-2.68ZM317.71 0L313.66 0 313.66-15.18Q313.66-17.15 313.13-18.57 312.59-20 311.38-20.79 310.16-21.58 308.06-21.58L308.06-21.58Q306.14-21.58 304.73-20.85 303.31-20.13 302.44-18.89 301.56-17.65 301.21-16.07L301.21-16.07 300.49-18.95 301.36-18.95Q301.76-20.6 302.76-21.96 303.76-23.33 305.45-24.14 307.14-24.95 309.59-24.95L309.59-24.95Q312.49-24.95 314.28-23.85 316.06-22.75 316.89-20.69 317.71-18.63 317.71-15.63L317.71-15.63 317.71 0ZM301.39 0L297.34 0 297.34-24.4 301.39-24.4 301.21-18.55 301.39-18.32 301.39 0ZM339.53 0L335.51 0 336.73-31.95 343.16-31.95 350.73-8.85 351.08-8.85 358.66-31.95 365.11-31.95 366.33 0 362.31 0 361.86-13.48 361.43-27.63 360.98-27.63 353.08-3.68 348.76-3.68 340.86-27.63 340.41-27.63 339.96-13.45 339.53 0ZM391.38 0L387.35 0 387.53-5.93 387.38-6.55 387.38-14.33 387.4-15.75Q387.4-18.73 385.89-20.15 384.38-21.58 381.1-21.58L381.1-21.58Q378.48-21.58 376.29-20.83 374.1-20.08 372.4-19.07L372.4-19.07 372.78-22.53Q373.73-23.1 375.04-23.66 376.35-24.23 378.04-24.6 379.73-24.98 381.75-24.98L381.75-24.98Q384.38-24.98 386.22-24.34 388.06-23.7 389.19-22.5 390.33-21.3 390.85-19.6 391.38-17.9 391.38-15.8L391.38-15.8 391.38 0ZM378.95 0.53L378.95 0.53Q375.33 0.53 373.39-1.24 371.45-3 371.45-6.28L371.45-6.28 371.45-7Q371.45-10.38 373.54-12.04 375.63-13.7 380.18-14.35L380.18-14.35 387.9-15.45 388.13-12.5 380.68-11.43Q377.88-11.03 376.68-10.06 375.48-9.1 375.48-7.23L375.48-7.23 375.48-6.83Q375.48-4.9 376.67-3.88 377.85-2.85 380.23-2.85L380.23-2.85Q382.33-2.85 383.83-3.58 385.33-4.3 386.25-5.53 387.18-6.75 387.5-8.25L387.5-8.25 388.13-5.5 387.35-5.5Q387-3.9 386.04-2.53 385.08-1.15 383.35-0.31 381.63 0.53 378.95 0.53ZM405.63 0.53L405.63 0.53Q401.23 0.53 398.93-2.2 396.63-4.93 396.63-10.15L396.63-10.15 396.63-14.18Q396.63-19.43 398.95-22.19 401.28-24.95 405.8-24.95L405.8-24.95Q408.05-24.95 409.7-24.19 411.35-23.43 412.38-22.05 413.4-20.68 413.75-18.8L413.75-18.8 415.08-18.8 413.88-15.08Q413.8-17.23 412.91-18.69 412.03-20.15 410.51-20.9 409-21.65 407.05-21.65L407.05-21.65Q403.95-21.65 402.31-19.85 400.68-18.05 400.68-14.55L400.68-14.55 400.68-9.9Q400.68-6.45 402.31-4.65 403.95-2.85 407.05-2.85L407.05-2.85Q408.9-2.85 410.33-3.56 411.75-4.28 412.69-5.54 413.63-6.8 413.98-8.4L413.98-8.4 414.98-5.5 413.78-5.5Q413.43-3.85 412.44-2.48 411.45-1.1 409.79-0.29 408.13 0.53 405.63 0.53ZM417.83 0L413.78 0 413.95-5.9 413.88-7.2 413.88-17.4 413.9-18.25 413.8-25.18 413.8-33.13 417.83-33.13 417.83 0ZM434.68 0.55L434.68 0.55Q429.1 0.55 426.27-2.18 423.45-4.9 423.45-9.98L423.45-9.98 423.45-14.33Q423.45-19.48 426.07-22.26 428.7-25.05 433.75-25.05L433.75-25.05Q437.15-25.05 439.43-23.79 441.7-22.53 442.85-20.2 444-17.88 444-14.65L444-14.65 444-13.75Q444-12.95 443.94-12.15 443.88-11.35 443.77-10.58L443.77-10.58 440.05-10.58Q440.1-11.78 440.11-12.85 440.13-13.93 440.13-14.83L440.13-14.83Q440.13-17.05 439.41-18.59 438.7-20.13 437.29-20.94 435.88-21.75 433.75-21.75L433.75-21.75Q430.6-21.75 429.02-19.93 427.45-18.1 427.45-14.7L427.45-14.7 427.45-12.38 427.48-11.88 427.48-9.55Q427.48-8.03 427.93-6.8 428.38-5.58 429.34-4.69 430.3-3.8 431.79-3.34 433.27-2.88 435.32-2.88L435.32-2.88Q437.7-2.88 439.75-3.5 441.8-4.13 443.6-5.2L443.6-5.2 443.23-1.7Q441.6-0.68 439.45-0.06 437.3 0.55 434.68 0.55ZM442.93-10.58L425.57-10.58 425.57-13.63 442.93-13.63 442.93-10.58ZM465.55 0L461.44 0 461.44-31.95 465.55-31.95 465.55 0ZM481.37 0L462.67 0 462.67-3.48 481.37-3.48 481.37 0ZM480.85-14.58L463.8-14.58 463.8-18.03 480.85-18.03 480.85-14.58ZM481.22-28.48L462.65-28.48 462.65-31.95 481.22-31.95 481.22-28.48ZM505.62 0L501.59 0 501.77-5.93 501.62-6.55 501.62-14.33 501.64-15.75Q501.64-18.73 500.13-20.15 498.62-21.58 495.34-21.58L495.34-21.58Q492.72-21.58 490.53-20.83 488.34-20.08 486.64-19.07L486.64-19.07 487.02-22.53Q487.97-23.1 489.28-23.66 490.59-24.23 492.28-24.6 493.97-24.98 495.99-24.98L495.99-24.98Q498.62-24.98 500.45-24.34 502.29-23.7 503.43-22.5 504.57-21.3 505.09-19.6 505.62-17.9 505.62-15.8L505.62-15.8 505.62 0ZM493.19 0.53L493.19 0.53Q489.57 0.53 487.63-1.24 485.69-3 485.69-6.28L485.69-6.28 485.69-7Q485.69-10.38 487.78-12.04 489.87-13.7 494.42-14.35L494.42-14.35 502.14-15.45 502.37-12.5 494.92-11.43Q492.12-11.03 490.92-10.06 489.72-9.1 489.72-7.23L489.72-7.23 489.72-6.83Q489.72-4.9 490.9-3.88 492.09-2.85 494.47-2.85L494.47-2.85Q496.57-2.85 498.07-3.58 499.57-4.3 500.49-5.53 501.42-6.75 501.74-8.25L501.74-8.25 502.37-5.5 501.59-5.5Q501.24-3.9 500.28-2.53 499.32-1.15 497.59-0.31 495.87 0.53 493.19 0.53ZM519.44 0.55L519.44 0.55Q516.49 0.55 514.29-0.09 512.09-0.73 510.64-1.48L510.64-1.48 510.26-5.23Q512.09-4.28 514.28-3.58 516.47-2.88 519.24-2.88L519.24-2.88Q522.06-2.88 523.49-3.78 524.91-4.67 524.91-6.45L524.91-6.45 524.91-6.73Q524.91-7.88 524.38-8.63 523.84-9.38 522.44-9.95 521.04-10.53 518.47-11.1L518.47-11.1Q515.39-11.78 513.62-12.69 511.84-13.6 511.08-14.95 510.31-16.3 510.31-18.25L510.31-18.25 510.31-18.48Q510.31-21.68 512.54-23.33 514.76-24.98 519.24-24.98L519.24-24.98Q522.12-24.98 524.23-24.33 526.34-23.68 527.69-22.88L527.69-22.88 528.06-19.45Q526.44-20.4 524.34-21.03 522.24-21.65 519.62-21.65L519.62-21.65Q517.72-21.65 516.54-21.26 515.37-20.88 514.84-20.16 514.31-19.45 514.31-18.45L514.31-18.45 514.31-18.25Q514.31-17.15 514.84-16.39 515.37-15.63 516.73-15.06 518.09-14.5 520.51-13.98L520.51-13.98Q523.64-13.35 525.48-12.48 527.31-11.6 528.12-10.26 528.91-8.93 528.91-6.83L528.91-6.83 528.91-6.4Q528.91-2.95 526.51-1.2 524.12 0.55 519.44 0.55ZM537.99 0L533.94 0 533.94-24.4 537.99-24.4 537.99 0ZM535.96-28.4L535.96-28.4Q534.71-28.4 534.1-29.06 533.49-29.73 533.49-30.88L533.49-30.88 533.49-31Q533.49-32.18 534.1-32.83 534.71-33.48 535.96-33.48L535.96-33.48Q537.21-33.48 537.84-32.83 538.46-32.18 538.46-31L538.46-31 538.46-30.88Q538.46-29.7 537.84-29.05 537.21-28.4 535.96-28.4ZM554.93 0.55L554.93 0.55Q549.36 0.55 546.53-2.18 543.71-4.9 543.71-9.98L543.71-9.98 543.71-14.33Q543.71-19.48 546.33-22.26 548.96-25.05 554.01-25.05L554.01-25.05Q557.41-25.05 559.68-23.79 561.96-22.53 563.11-20.2 564.26-17.88 564.26-14.65L564.26-14.65 564.26-13.75Q564.26-12.95 564.2-12.15 564.13-11.35 564.03-10.58L564.03-10.58 560.31-10.58Q560.36-11.78 560.37-12.85 560.38-13.93 560.38-14.83L560.38-14.83Q560.38-17.05 559.67-18.59 558.96-20.13 557.55-20.94 556.13-21.75 554.01-21.75L554.01-21.75Q550.86-21.75 549.28-19.93 547.71-18.1 547.71-14.7L547.71-14.7 547.71-12.38 547.73-11.88 547.73-9.55Q547.73-8.03 548.18-6.8 548.63-5.58 549.6-4.69 550.56-3.8 552.05-3.34 553.53-2.88 555.58-2.88L555.58-2.88Q557.96-2.88 560.01-3.5 562.06-4.13 563.86-5.2L563.86-5.2 563.48-1.7Q561.86-0.68 559.71-0.06 557.56 0.55 554.93 0.55ZM563.18-10.58L545.83-10.58 545.83-13.63 563.18-13.63 563.18-10.58ZM573.51-14.93L573.51-14.93 572.58-18.05 573.58-18.1Q574.38-21.2 576.33-22.99 578.28-24.78 581.51-24.78L581.51-24.78Q582.31-24.78 582.94-24.65 583.58-24.53 584.08-24.35L584.08-24.35 584.33-20.43Q583.71-20.63 582.94-20.75 582.18-20.88 581.26-20.88L581.26-20.88Q578.51-20.88 576.47-19.35 574.43-17.82 573.51-14.93ZM573.71 0L569.66 0 569.66-24.4 573.61-24.4 573.41-17.2 573.71-16.9 573.71 0Z" opacity="1" transform="matrix(1,0,0,1,0,0)" fill="#ffffff" class="slogan-text-1" data-fill-palette-color="secondary" id="text-1"></path></svg></g></svg></g></svg></g></svg></g><g><svg viewBox="0 0 229.55589849331315 229.55589849331315" height="229.55589849331315" width="229.55589849331315"><g><svg></svg></g><g id="icon-0"><svg viewBox="0 0 229.55589849331315 229.55589849331315" height="229.55589849331315" width="229.55589849331315"><g><path d="M0 114.778c0-63.39 51.388-114.778 114.778-114.778 63.39 0 114.778 51.388 114.778 114.778 0 63.39-51.388 114.778-114.778 114.778-63.39 0-114.778-51.388-114.778-114.778zM114.778 223.821c60.223 0 109.043-48.82 109.043-109.043 0-60.223-48.82-109.043-109.043-109.043-60.223 0-109.043 48.82-109.043 109.043 0 60.223 48.82 109.043 109.043 109.043z" data-fill-palette-color="accent" fill="#ffffff" stroke="transparent"></path></g><g transform="matrix(1,0,0,1,73.41825734106389,46.31468360933266)"><svg viewBox="0 0 82.71938381118537 136.92653127464783" height="136.92653127464783" width="82.71938381118537"><g><svg xmlns="http://www.w3.org/2000/svg" xmlns:xlink="http://www.w3.org/1999/xlink" version="1.1" x="0" y="0" viewBox="20.874486835009044 1.829499061719099 58.09436196155989 96.1643946498379" enable-background="new 0 0 100 100" xml:space="preserve" height="136.92653127464783" width="82.71938381118537" class="icon-dxe-0" data-fill-palette-color="accent" id="dxe-0"><g fill="#7d7d7d" data-fill-palette-color="accent"><path d="M28.157 21.837A1.84 1.84 0 0 0 29.46 18.692L24.019 13.251A1.84 1.84 0 1 0 21.414 15.856L26.855 21.297C27.214 21.657 27.686 21.837 28.157 21.837" fill="#ffffff" data-fill-palette-color="accent"></path><path d="M78.428 13.25A1.84 1.84 0 0 0 75.823 13.25L70.382 18.691A1.84 1.84 0 0 0 71.685 21.836C72.157 21.836 72.628 21.656 72.988 21.296L78.429 15.855A1.84 1.84 0 0 0 78.428 13.25" fill="#ffffff" data-fill-palette-color="accent"></path><path d="M40.01 12.415A1.85 1.85 0 0 0 41.759 13.677 1.843 1.843 0 0 0 43.507 11.251L40.788 3.09A1.841 1.841 0 1 0 37.292 4.255z" fill="#ffffff" data-fill-palette-color="accent"></path><path d="M57.5 13.581A1.84 1.84 0 0 0 59.83 12.416L62.552 4.255A1.843 1.843 0 0 0 59.056 3.089L56.335 11.25A1.84 1.84 0 0 0 57.5 13.581" fill="#ffffff" data-fill-palette-color="accent"></path><path d="M57.5 84.438L41.176 89.876A1.842 1.842 0 1 0 42.341 93.372L58.666 87.933A1.843 1.843 0 0 0 57.5 84.438" fill="#ffffff" data-fill-palette-color="accent"></path><path d="M54.448 90.895L43.882 94.416A1.843 1.843 0 0 0 45.047 97.912L55.614 94.39A1.842 1.842 0 0 0 54.448 90.895" fill="#ffffff" data-fill-palette-color="accent"></path><path d="M49.921 19.054C37.566 19.054 26.315 30.305 26.315 42.659 26.315 51.347 29.915 57.108 33.396 62.68 36.749 68.044 39.917 73.112 39.917 80.746 39.917 81.763 40.741 82.588 41.76 82.588H46.728L41.177 84.439A1.843 1.843 0 0 0 42.342 87.934L58.667 82.493C58.688 82.486 58.706 82.473 58.728 82.467 58.79 82.443 58.851 82.414 58.91 82.386A1.6 1.6 0 0 0 59.205 82.2C59.253 82.162 59.3 82.126 59.345 82.085 59.387 82.045 59.425 82.001 59.463 81.958 59.501 81.913 59.54 81.869 59.574 81.821 59.61 81.771 59.641 81.718 59.672 81.665 59.7 81.617 59.729 81.569 59.752 81.519 59.778 81.463 59.799 81.404 59.819 81.343 59.837 81.29 59.856 81.236 59.87 81.18 59.884 81.122 59.892 81.065 59.9 81.005 59.91 80.943 59.918 80.88 59.92 80.816 59.921 80.792 59.928 80.77 59.928 80.747 59.928 73.112 63.095 68.045 66.449 62.681 69.929 57.11 73.529 51.349 73.529 42.66 73.526 30.305 62.275 19.054 49.921 19.054M61.825 53.32C56.65 61.081 56.591 71.576 56.591 71.681A1.229 1.229 0 1 1 54.133 71.681C54.133 71.256 54.188 61.897 58.621 53.867H55.361A1.2 1.2 0 0 1 54.822 53.742L53.739 55.909A1.24 1.24 0 0 1 52.358 56.556 1.23 1.23 0 0 1 51.412 55.359V55.122L51.018 55.909A1.23 1.23 0 0 1 48.691 55.359V55.122L48.297 55.909A1.23 1.23 0 0 1 45.97 55.359V55.124L45.578 55.909A1.23 1.23 0 0 1 44.197 56.554 1.226 1.226 0 0 1 43.251 55.36V53.868H41.22C45.653 61.898 45.708 71.258 45.708 71.682 45.708 72.361 45.158 72.911 44.48 72.911H44.479A1.23 1.23 0 0 1 43.25 71.684C43.25 71.579 43.178 61.065 38.015 53.321A1.229 1.229 0 0 1 39.037 51.411H44.478C44.67 51.411 44.854 51.457 45.015 51.536L46.097 49.371A1.227 1.227 0 0 1 48.424 49.92V50.157L48.818 49.37A1.228 1.228 0 0 1 51.145 49.92V50.157L51.539 49.37A1.229 1.229 0 0 1 53.867 49.92V50.157L54.26 49.37A1.228 1.228 0 0 1 56.588 49.92V51.411H60.801C61.254 51.411 61.67 51.661 61.884 52.061 62.101 52.459 62.076 52.943 61.825 53.32M49.923 23.617S66.245 23.617 68.963 39.938C68.925 39.945 66.245 29.058 49.923 23.617" fill="#ffffff" data-fill-palette-color="accent"></path></g></svg></g></svg></g></svg></g></svg></g></svg></g><defs></defs></svg><rect width="395.52" height="138.5954466244666" fill="none" stroke="none" visibility="hidden"></rect></g></svg></g></svg>